# This file uses centimeters as units for non-parametric coordinates.

mtllib Rock1.mtl
g default
v 0.112880 -0.341814 -0.420821
v -0.295524 -0.341814 -0.260082
v -0.295524 -0.341814 0.260082
v 0.112880 -0.341814 0.420821
v 0.365287 -0.341814 0.000000
v 0.182644 -0.130561 -0.455359
v -0.350973 -0.130561 -0.165186
v -0.350973 -0.130561 0.165186
v 0.182644 -0.130561 0.455359
v 0.471806 -0.055222 0.000000
v 0.182644 0.130561 -0.455359
v -0.388585 0.130561 -0.189981
v -0.388585 0.130561 0.189981
v 0.182644 0.130561 0.455359
v 0.112880 0.341814 -0.420821
v -0.295524 0.341814 -0.260082
v -0.295524 0.341814 0.260082
v 0.112880 0.341814 0.420821
v 0.365287 0.362733 0.000000
v 0.000000 -0.347757 0.000000
v 0.000000 0.460341 0.000000
vt 0.000000 0.200000
vt 0.200000 0.200000
vt 0.400000 0.200000
vt 0.600000 0.200000
vt 0.800000 0.200000
vt 1.000000 0.200000
vt 0.000000 0.400000
vt 0.200000 0.400000
vt 0.400000 0.400000
vt 0.600000 0.400000
vt 0.800000 0.500000
vt 1.000000 0.400000
vt 0.000000 0.600000
vt 0.200000 0.600000
vt 0.400000 0.600000
vt 0.600000 0.600000
vt 1.000000 0.600000
vt 0.000000 0.800000
vt 0.200000 0.800000
vt 0.400000 0.800000
vt 0.600000 0.800000
vt 0.800000 0.800000
vt 1.000000 0.800000
vt 0.100000 0.000000
vt 0.300000 0.000000
vt 0.500000 0.000000
vt 0.700000 0.000000
vt 0.900000 0.000000
vt 0.100000 1.000000
vt 0.300000 1.000000
vt 0.500000 1.000000
vt 0.700000 1.000000
vt 0.900000 1.000000
vn -0.427375 0.142029 -0.892848
vn -0.427375 0.142029 -0.892848
vn -0.427375 0.142029 -0.892849
vn -0.427375 0.142029 -0.892849
vn -0.967236 -0.253881 -0.000000
vn -0.967236 -0.253881 -0.000000
vn -0.967236 -0.253881 -0.000000
vn -0.967236 -0.253881 -0.000000
vn -0.427375 0.142029 0.892848
vn -0.427375 0.142029 0.892848
vn -0.427375 0.142029 0.892848
vn -0.427375 0.142029 0.892848
vn 0.817320 -0.322528 0.477455
vn 0.817320 -0.322528 0.477455
vn 0.817320 -0.322528 0.477455
vn 0.817320 -0.322528 0.477455
vn 0.817320 -0.322528 -0.477455
vn 0.817320 -0.322528 -0.477455
vn 0.817320 -0.322528 -0.477455
vn 0.817320 -0.322528 -0.477455
vn -0.447985 -0.074561 -0.890926
vn -0.447985 -0.074561 -0.890926
vn -0.447985 -0.074561 -0.890926
vn -0.447985 -0.074561 -0.890926
vn -0.989785 -0.142565 -0.000000
vn -0.989785 -0.142565 -0.000000
vn -0.989785 -0.142565 -0.000000
vn -0.989785 -0.142565 -0.000000
vn -0.447986 -0.074561 0.890926
vn -0.447986 -0.074561 0.890926
vn -0.447986 -0.074561 0.890926
vn -0.447986 -0.074561 0.890926
vn 0.844175 0.000000 0.536068
vn 0.844175 0.000000 0.536068
vn 0.844175 0.000000 0.536068
vn 0.844175 0.000000 -0.536068
vn 0.844175 0.000000 -0.536068
vn 0.844175 0.000000 -0.536068
vn -0.398270 -0.055109 -0.915611
vn -0.398270 -0.055109 -0.915611
vn -0.398270 -0.055109 -0.915611
vn -0.398270 -0.055109 -0.915611
vn -0.915140 0.403137 -0.000000
vn -0.915140 0.403137 -0.000000
vn -0.915139 0.403137 -0.000000
vn -0.915140 0.403137 -0.000000
vn -0.398270 -0.055109 0.915611
vn -0.398270 -0.055109 0.915611
vn -0.398270 -0.055109 0.915611
vn -0.398270 -0.055109 0.915611
vn 0.842209 0.261828 0.471306
vn 0.842209 0.261828 0.471306
vn 0.842209 0.261828 0.471306
vn 0.842209 0.261828 0.471306
vn 0.842209 0.261828 -0.471306
vn 0.842209 0.261828 -0.471306
vn 0.842209 0.261828 -0.471306
vn 0.842209 0.261828 -0.471306
vn -0.006213 -0.999856 -0.015786
vn -0.006213 -0.999856 -0.015786
vn -0.006213 -0.999856 -0.015786
vn -0.020104 -0.999798 0.000000
vn -0.020104 -0.999798 0.000000
vn -0.020104 -0.999798 0.000000
vn -0.006213 -0.999856 0.015786
vn -0.006213 -0.999856 0.015786
vn -0.006213 -0.999856 0.015786
vn 0.016265 -0.999820 0.009756
vn 0.016265 -0.999820 0.009756
vn 0.016265 -0.999820 0.009756
vn 0.016265 -0.999820 -0.009756
vn 0.016265 -0.999820 -0.009756
vn 0.016265 -0.999820 -0.009756
vn -0.117398 0.947230 -0.298283
vn -0.117398 0.947230 -0.298283
vn -0.117398 0.947230 -0.298283
vn -0.372249 0.928133 0.000000
vn -0.372249 0.928133 0.000000
vn -0.372249 0.928133 0.000000
vn -0.117398 0.947230 0.298283
vn -0.117398 0.947230 0.298283
vn -0.117398 0.947230 0.298283
vn 0.252997 0.946819 0.198813
vn 0.252998 0.946819 0.198813
vn 0.252997 0.946819 0.198813
vn 0.252997 0.946819 -0.198813
vn 0.252997 0.946819 -0.198813
vn 0.252997 0.946819 -0.198813
s off
g pSphere1
usemtl initialShadingGroup
f 1/1/1 2/2/2 7/8/3 6/7/4
f 2/2/5 3/3/6 8/9/7 7/8/8
f 3/3/9 4/4/10 9/10/11 8/9/12
f 4/4/13 5/5/14 10/11/15 9/10/16
f 5/5/17 1/6/18 6/12/19 10/11/20
f 6/7/21 7/8/22 12/14/23 11/13/24
f 7/8/25 8/9/26 13/15/27 12/14/28
f 8/9/29 9/10/30 14/16/31 13/15/32
f 9/10/33 10/11/34 14/16/35
f 10/11/36 6/12/37 11/17/38
f 11/13/39 12/14/40 16/19/41 15/18/42
f 12/14/43 13/15/44 17/20/45 16/19/46
f 13/15/47 14/16/48 18/21/49 17/20/50
f 14/16/51 10/11/52 19/22/53 18/21/54
f 10/11/55 11/17/56 15/23/57 19/22/58
f 2/2/59 1/1/60 20/24/61
f 3/3/62 2/2/63 20/25/64
f 4/4/65 3/3/66 20/26/67
f 5/5/68 4/4/69 20/27/70
f 1/6/71 5/5/72 20/28/73
f 15/18/74 16/19/75 21/29/76
f 16/19/77 17/20/78 21/30/79
f 17/20/80 18/21/81 21/31/82
f 18/21/83 19/22/84 21/32/85
f 19/22/86 15/23/87 21/33/88
