# This file uses centimeters as units for non-parametric coordinates.

mtllib MarketTent.mtl
g default
v 0.951057 -1.000000 -0.309017
v 0.809018 -1.000000 -0.587786
v 0.587786 -1.000000 -0.809017
v 0.309017 -1.000000 -0.951057
v 0.000000 -1.000000 -1.000000
v -0.309017 -1.000000 -0.951057
v -0.587785 -1.000000 -0.809017
v -0.809017 -1.000000 -0.587785
v -0.951057 -1.000000 -0.459455
v -0.951057 -1.000000 0.459455
v -0.809017 -1.000000 0.587785
v -0.587785 -1.000000 0.809017
v -0.309017 -1.000000 0.951057
v -0.000000 -1.000000 1.000000
v 0.309017 -1.000000 0.951057
v 0.587785 -1.000000 0.809017
v 0.809017 -1.000000 0.587785
v 0.951057 -1.000000 0.309017
v 1.000000 -1.000000 0.000000
v 1.353040 1.000000 -0.458706
v 0.809018 1.000000 -0.587786
v 0.836224 1.000000 -1.200908
v 0.309017 1.000000 -0.951057
v -0.000000 1.000000 -1.484403
v -0.309017 1.000000 -0.951057
v -0.836224 1.000000 -1.200907
v -0.809017 1.000000 -0.587785
v -1.250339 0.094333 0.000000
v -0.249319 2.251874 0.000000
v -0.809017 1.000000 0.587785
v -0.836224 1.000000 1.200907
v -0.309017 1.000000 0.951057
v -0.000000 1.000000 1.484403
v 0.309017 1.000000 0.951057
v 0.836224 1.000000 1.200907
v 0.809017 1.000000 0.587785
v 1.353039 1.000000 0.458706
v 1.000000 1.000000 0.000000
v -0.809017 0.332229 -0.587785
v -0.659695 -0.421112 -0.922448
v -0.309017 -0.421112 -0.951057
v -0.000000 -0.421112 -1.140208
v 0.309017 -0.421112 -0.951057
v 0.659695 -0.421112 -0.922448
v 0.809018 -0.421112 -0.587786
v 1.067409 -0.421112 -0.352344
v 1.000000 -0.421112 0.000000
v 1.067408 -0.421112 0.352343
v 0.809017 -0.421112 0.587785
v 0.659694 -0.421112 0.922447
v 0.309017 -0.421112 0.951057
v -0.000000 -0.421112 1.140208
v -0.309017 -0.421112 0.951057
v -0.659694 -0.421112 0.922447
v -0.809017 0.332229 0.587785
vt 0.648603 0.107966
vt 0.626409 0.064408
vt 0.591842 0.029841
vt 0.548284 0.007647
vt 0.500000 -0.000000
vt 0.451716 0.007647
vt 0.408159 0.029841
vt 0.373591 0.064409
vt 0.351397 0.107966
vt 0.351397 0.204534
vt 0.373591 0.248091
vt 0.408159 0.282659
vt 0.451716 0.304853
vt 0.500000 0.312500
vt 0.548284 0.304853
vt 0.591841 0.282659
vt 0.626409 0.248091
vt 0.648603 0.204534
vt 0.656250 0.156250
vt 0.375000 0.312500
vt 0.387500 0.312500
vt 0.400000 0.312500
vt 0.412500 0.312500
vt 0.425000 0.312500
vt 0.437500 0.312500
vt 0.450000 0.312500
vt 0.462500 0.312500
vt 0.475000 0.312500
vt 0.500000 0.312500
vt 0.512500 0.312500
vt 0.525000 0.312500
vt 0.537500 0.312500
vt 0.550000 0.312500
vt 0.562500 0.312500
vt 0.575000 0.312500
vt 0.587500 0.312500
vt 0.600000 0.312500
vt 0.612500 0.312500
vt 0.625000 0.312500
vt 0.375000 0.688440
vt 0.387500 0.688440
vt 0.400000 0.688440
vt 0.412500 0.688440
vt 0.425000 0.688440
vt 0.437500 0.688440
vt 0.450000 0.688440
vt 0.462500 0.688440
vt 0.481250 0.554877
vt 0.512500 0.688440
vt 0.525000 0.688440
vt 0.537500 0.688440
vt 0.550000 0.688440
vt 0.562500 0.688440
vt 0.575000 0.688440
vt 0.587500 0.688440
vt 0.600000 0.688440
vt 0.612500 0.688440
vt 0.625000 0.688440
vt 0.648603 0.795466
vt 0.626409 0.751908
vt 0.591842 0.717341
vt 0.548284 0.695147
vt 0.500000 0.687500
vt 0.451716 0.695147
vt 0.408159 0.717341
vt 0.373591 0.751909
vt 0.351397 0.795466
vt 0.421875 0.840625
vt 0.351397 0.892034
vt 0.373591 0.935591
vt 0.408159 0.970159
vt 0.451716 0.992353
vt 0.500000 1.000000
vt 0.548284 0.992353
vt 0.591841 0.970159
vt 0.626409 0.935591
vt 0.648603 0.892034
vt 0.656250 0.843750
vt 0.500000 0.150000
vt 0.462500 0.421313
vt 0.450000 0.421313
vt 0.437500 0.421313
vt 0.425000 0.421313
vt 0.412500 0.421313
vt 0.400000 0.421313
vt 0.387500 0.421313
vt 0.625000 0.421313
vt 0.375000 0.421313
vt 0.612500 0.421313
vt 0.600000 0.421313
vt 0.587500 0.421313
vt 0.575000 0.421313
vt 0.562500 0.421313
vt 0.550000 0.421313
vt 0.537500 0.421313
vt 0.525000 0.421313
vt 0.512500 0.421313
vn 0.946247 -0.106522 -0.305401
vn 0.806978 -0.103684 -0.581409
vn 0.812657 -0.089948 -0.575759
vn 0.946433 -0.106520 -0.304824
vn 0.586537 -0.114976 -0.801720
vn 0.587317 -0.114969 -0.801150
vn 0.309430 -0.111368 -0.944378
vn 0.314606 -0.097543 -0.944197
vn -0.000000 -0.120222 -0.992747
vn -0.000000 -0.120222 -0.992747
vn -0.309431 -0.111368 -0.944378
vn -0.314606 -0.097543 -0.944197
vn -0.697194 -0.085316 -0.711787
vn -0.443182 -0.101665 -0.890648
vn -0.813504 -0.007687 -0.581508
vn -0.941898 -0.047135 -0.332577
vn -0.778781 0.022646 -0.626887
vn -0.781865 0.019392 -0.623146
vn -0.778781 0.022645 0.626887
vn -0.813504 -0.007687 0.581508
vn -0.941897 -0.047135 0.332577
vn -0.781865 0.019392 0.623146
vn -0.697194 -0.085316 0.711788
vn -0.443182 -0.101665 0.890648
vn -0.309430 -0.111368 0.944378
vn -0.314606 -0.097543 0.944197
vn 0.000000 -0.120222 0.992747
vn 0.000000 -0.120222 0.992747
vn 0.309431 -0.111368 0.944378
vn 0.314606 -0.097543 0.944197
vn 0.586537 -0.114976 0.801720
vn 0.587317 -0.114969 0.801150
vn 0.806978 -0.103684 0.581409
vn 0.812657 -0.089948 0.575759
vn 0.946247 -0.106522 0.305402
vn 0.946433 -0.106519 0.304825
vn 0.995091 -0.098963 0.000001
vn 0.996350 -0.085360 0.000001
vn -0.761210 -0.346790 0.547992
vn -0.889548 -0.355614 0.286781
vn -0.506587 -0.862189 0.000001
vn -0.558862 -0.332826 0.759540
vn -0.299715 -0.314847 0.900579
vn -0.007179 -0.294426 0.955647
vn 0.290663 -0.273498 0.916904
vn 0.563674 -0.254192 0.785912
vn 0.672740 -0.242158 0.699128
vn 0.650452 -0.242083 0.719936
vn 0.672740 -0.242158 -0.699128
vn 0.650451 -0.242083 -0.719937
vn 0.563674 -0.254192 -0.785912
vn 0.290663 -0.273498 -0.916905
vn -0.007180 -0.294426 -0.955647
vn -0.299715 -0.314847 -0.900579
vn -0.558862 -0.332825 -0.759540
vn -0.761210 -0.346790 -0.547992
vn -0.889548 -0.355614 -0.286782
vn -0.933480 -0.358629 -0.000001
vn 0.582487 0.799434 -0.147019
vn 0.578194 0.691858 -0.432463
vn -0.237834 0.971306 -0.000000
vn 0.434089 0.790640 -0.431806
vn 0.203654 0.648230 -0.733705
vn 0.108411 0.768835 -0.630190
vn -0.300649 0.585997 -0.752475
vn -0.335155 0.729313 -0.596468
vn -0.911682 0.410839 -0.006893
vn -0.906639 0.420647 -0.032585
vn -0.906639 0.420647 0.032585
vn -0.911682 0.410839 0.006893
vn -0.335155 0.729313 0.596468
vn -0.300648 0.585997 0.752475
vn 0.108411 0.768835 0.630190
vn 0.203654 0.648230 0.733705
vn 0.434089 0.790639 0.431806
vn 0.578194 0.691858 0.432463
vn 0.582487 0.799434 0.147020
vn 0.707829 0.706384 0.000001
vn -0.985982 -0.078447 -0.147262
vn -0.505817 -0.132251 -0.852443
vn -0.316348 -0.092844 -0.944089
vn -0.000000 -0.120222 -0.992747
vn 0.316347 -0.092844 -0.944089
vn 0.582222 -0.115015 -0.804853
vn 0.814515 -0.085337 -0.573832
vn 0.945226 -0.106537 -0.308540
vn 0.996728 -0.080831 0.000001
vn 0.945226 -0.106537 0.308541
vn 0.814515 -0.085337 0.573832
vn 0.582223 -0.115015 0.804853
vn 0.316348 -0.092844 0.944089
vn 0.000000 -0.120222 0.992747
vn -0.316348 -0.092844 0.944089
vn -0.505817 -0.132251 0.852443
vn -0.985982 -0.078447 0.147262
s 1
g pCylinder1
usemtl initialShadingGroup
f 1/20/1 2/21/2 45/86/3 46/88/4
f 2/21/2 3/22/5 44/85/6 45/86/3
f 3/22/5 4/23/7 43/84/8 44/85/6
f 4/23/7 5/24/9 42/83/10 43/84/8
f 5/24/9 6/25/11 41/82/12 42/83/10
f 6/25/11 7/26/13 40/81/14 41/82/12
f 7/26/13 8/27/15 39/80/16 40/81/14
f 8/27/15 9/28/17 28/48/18 39/80/16
f 10/29/19 11/30/20 55/97/21 28/48/22
f 11/30/20 12/31/23 54/96/24 55/97/21
f 12/31/23 13/32/25 53/95/26 54/96/24
f 13/32/25 14/33/27 52/94/28 53/95/26
f 14/33/27 15/34/29 51/93/30 52/94/28
f 15/34/29 16/35/31 50/92/32 51/93/30
f 16/35/31 17/36/33 49/91/34 50/92/32
f 17/36/33 18/37/35 48/90/36 49/91/34
f 18/37/35 19/38/37 47/89/38 48/90/36
f 19/38/37 1/39/1 46/87/4 47/89/38
s 3
f 2/2/39 1/1/40 29/79/41
f 3/3/42 2/2/39 29/79/41
f 4/4/43 3/3/42 29/79/41
f 5/5/44 4/4/43 29/79/41
f 6/6/45 5/5/44 29/79/41
f 7/7/46 6/6/45 29/79/41
f 8/8/47 7/7/46 29/79/41
f 9/9/48 8/8/47 29/79/41
f 11/11/49 10/10/50 29/79/41
f 12/12/51 11/11/49 29/79/41
f 13/13/52 12/12/51 29/79/41
f 14/14/53 13/13/52 29/79/41
f 15/15/54 14/14/53 29/79/41
f 16/16/55 15/15/54 29/79/41
f 17/17/56 16/16/55 29/79/41
f 18/18/57 17/17/56 29/79/41
f 19/19/58 18/18/57 29/79/41
f 1/1/40 19/19/58 29/79/41
s 5
f 20/77/59 21/76/60 29/68/61
f 21/76/60 22/75/62 29/68/61
f 22/75/62 23/74/63 29/68/61
f 23/74/63 24/73/64 29/68/61
f 24/73/64 25/72/65 29/68/61
f 25/72/65 26/71/66 29/68/61
f 26/71/66 27/70/67 29/68/61
f 27/70/67 28/69/68 29/68/61
f 28/67/69 30/66/70 29/68/61
f 30/66/70 31/65/71 29/68/61
f 31/65/71 32/64/72 29/68/61
f 32/64/72 33/63/73 29/68/61
f 33/63/73 34/62/74 29/68/61
f 34/62/74 35/61/75 29/68/61
f 35/61/75 36/60/76 29/68/61
f 36/60/76 37/59/77 29/68/61
f 37/59/77 38/78/78 29/68/61
f 38/78/78 20/77/59 29/68/61
s 1
f 39/80/16 28/48/18 27/47/79
f 40/81/14 39/80/16 27/47/79 26/46/80
f 41/82/12 40/81/14 26/46/80 25/45/81
f 42/83/10 41/82/12 25/45/81 24/44/82
f 43/84/8 42/83/10 24/44/82 23/43/83
f 44/85/6 43/84/8 23/43/83 22/42/84
f 45/86/3 44/85/6 22/42/84 21/41/85
f 46/88/4 45/86/3 21/41/85 20/40/86
f 47/89/38 46/87/4 20/58/86 38/57/87
f 48/90/36 47/89/38 38/57/87 37/56/88
f 49/91/34 48/90/36 37/56/88 36/55/89
f 50/92/32 49/91/34 36/55/89 35/54/90
f 51/93/30 50/92/32 35/54/90 34/53/91
f 52/94/28 51/93/30 34/53/91 33/52/92
f 53/95/26 52/94/28 33/52/92 32/51/93
f 54/96/24 53/95/26 32/51/93 31/50/94
f 55/97/21 54/96/24 31/50/94 30/49/95
f 28/48/22 55/97/21 30/49/95
